<?xml version="1.0" encoding="UTF-8"?>
<svg xmlns="http://www.w3.org/2000/svg" width="1200" height="300" viewBox="0 0 1200 300">
  <!-- Background -->
  <rect width="1200" height="300" fill="#051937" />
  <rect x="0" y="0" width="1200" height="300" fill="#051937" />
  
  <!-- Gradient overlay -->
  <defs>
    <linearGradient id="grad1" x1="0%" y1="0%" x2="100%" y2="100%">
      <stop offset="0%" style="stop-color:#051937;stop-opacity:1" />
      <stop offset="100%" style="stop-color:#004d7a;stop-opacity:1" />
    </linearGradient>
  </defs>
  <rect width="1200" height="300" fill="url(#grad1)" />
  
  <!-- Network visualization abstraction -->
  <!-- Nodes -->
  <circle cx="200" cy="100" r="10" fill="#ffffff" opacity="0.7" />
  <circle cx="300" cy="150" r="8" fill="#ffffff" opacity="0.7" />
  <circle cx="350" cy="80" r="12" fill="#ffffff" opacity="0.7" />
  <circle cx="400" cy="200" r="9" fill="#ffffff" opacity="0.7" />
  <circle cx="500" cy="120" r="11" fill="#ffffff" opacity="0.7" />
  <circle cx="580" cy="170" r="7" fill="#ffffff" opacity="0.7" />
  <circle cx="620" cy="90" r="10" fill="#ffffff" opacity="0.7" />
  <circle cx="700" cy="130" r="8" fill="#ffffff" opacity="0.7" />
  <circle cx="750" cy="180" r="11" fill="#ffffff" opacity="0.7" />
  <circle cx="800" cy="100" r="9" fill="#ffffff" opacity="0.7" />
  <circle cx="850" cy="220" r="10" fill="#ffffff" opacity="0.7" />
  <circle cx="900" cy="150" r="8" fill="#ffffff" opacity="0.7" />
  <circle cx="950" cy="80" r="11" fill="#ffffff" opacity="0.7" />
  <circle cx="1000" cy="160" r="9" fill="#ffffff" opacity="0.7" />

  <!-- Edges -->
  <line x1="200" y1="100" x2="300" y2="150" stroke="#ffffff" stroke-width="1" opacity="0.3" />
  <line x1="300" y1="150" x2="350" y2="80" stroke="#ffffff" stroke-width="1" opacity="0.3" />
  <line x1="350" y1="80" x2="500" y2="120" stroke="#ffffff" stroke-width="1" opacity="0.3" />
  <line x1="500" y1="120" x2="400" y2="200" stroke="#ffffff" stroke-width="1" opacity="0.3" />
  <line x1="400" y1="200" x2="300" y2="150" stroke="#ffffff" stroke-width="1" opacity="0.3" />
  <line x1="500" y1="120" x2="580" y2="170" stroke="#ffffff" stroke-width="1" opacity="0.3" />
  <line x1="580" y1="170" x2="620" y2="90" stroke="#ffffff" stroke-width="1" opacity="0.3" />
  <line x1="620" y1="90" x2="500" y2="120" stroke="#ffffff" stroke-width="1" opacity="0.3" />
  <line x1="620" y1="90" x2="700" y2="130" stroke="#ffffff" stroke-width="1" opacity="0.3" />
  <line x1="700" y1="130" x2="750" y2="180" stroke="#ffffff" stroke-width="1" opacity="0.3" />
  <line x1="750" y1="180" x2="800" y2="100" stroke="#ffffff" stroke-width="1" opacity="0.3" />
  <line x1="800" y1="100" x2="700" y2="130" stroke="#ffffff" stroke-width="1" opacity="0.3" />
  <line x1="800" y1="100" x2="850" y2="220" stroke="#ffffff" stroke-width="1" opacity="0.3" />
  <line x1="850" y1="220" x2="900" y2="150" stroke="#ffffff" stroke-width="1" opacity="0.3" />
  <line x1="900" y1="150" x2="950" y2="80" stroke="#ffffff" stroke-width="1" opacity="0.3" />
  <line x1="950" y1="80" x2="1000" y2="160" stroke="#ffffff" stroke-width="1" opacity="0.3" />
  <line x1="1000" y1="160" x2="900" y2="150" stroke="#ffffff" stroke-width="1" opacity="0.3" />
  
  <!-- Community Highlighting -->
  <circle cx="350" cy="110" r="60" fill="#3498db" opacity="0.2" stroke="#3498db" stroke-width="1" stroke-dasharray="5,3" />
  <circle cx="720" cy="140" r="70" fill="#e74c3c" opacity="0.2" stroke="#e74c3c" stroke-width="1" stroke-dasharray="5,3" />
  <circle cx="930" cy="140" r="65" fill="#2ecc71" opacity="0.2" stroke="#2ecc71" stroke-width="1" stroke-dasharray="5,3" />
  
  <!-- Title -->
  <text x="600" y="100" font-family="Arial" font-size="36" fill="#ffffff" text-anchor="middle" font-weight="bold">Greater Manchester</text>
  <text x="600" y="150" font-family="Arial" font-size="40" fill="#ffffff" text-anchor="middle" font-weight="bold">Transport Network Analysis</text>
  
  <!-- Subtitle -->
  <text x="600" y="190" font-family="Arial" font-size="18" fill="#ffffff" text-anchor="middle">Advanced insights for transport planning, equity, and resilience</text>
  
  <!-- Bottom line -->
  <line x1="300" y1="230" x2="900" y2="230" stroke="#ffffff" stroke-width="2" opacity="0.5" />
</svg>